<svg xmlns="http://www.w3.org/2000/svg" viewBox="0 0 24 24" width="{{ .width }}" height="{{ .height }}">
  <path fill="currentColor" d="M12.09 3.12c-.22.68-.45 1.34-.67 2.01-.89 2.7-1.78 5.4-2.67 8.1-.28.84-.56 1.68-.83 2.52-.16.49-.32.98-.49 1.47l-.09.28-.15-.41c-.69-1.92-1.39-3.84-2.08-5.76-.71-1.97-1.42-3.95-2.13-5.92-.19-.53-.38-1.07-.57-1.6-.14-.38-.28-.75-.41-1.13-.09-.27-.2-.53-.41-.71-.21-.18-.5-.22-.76-.23V2h5.18v.83c-.45.02-.79.16-.94.57-.17.46-.02 1.01.16 1.48.65 1.76 1.29 3.51 1.94 5.27.67 1.83 1.35 3.66 2.02 5.49.07.2.14.4.21.6l.08-.24c.73-2.12 1.47-4.24 2.2-6.36.66-1.91 1.32-3.82 1.99-5.73.18-.51.35-1.02.49-1.55.12-.46-.02-.91-.35-1.22-.32-.3-.77-.32-1.2-.33V2h4.08v.83c-.42.02-.76.19-.9.59-.14.4-.04.86.11 1.27.7 1.89 1.39 3.78 2.08 5.67.68 1.86 1.37 3.72 2.05 5.58.07.19.14.39.21.58l.08-.23c.73-2.1 1.47-4.2 2.2-6.3.69-1.97 1.38-3.93 2.07-5.9.15-.43.3-.87.42-1.31.13-.48-.06-.94-.43-1.25-.36-.31-.88-.32-1.35-.33V2h4.52v.83c-.53.03-.93.22-1.09.73-.18.57-.38 1.13-.57 1.7-.87 2.53-1.74 5.06-2.61 7.59-.75 2.18-1.5 4.36-2.25 6.54-.18.52-.36 1.04-.54 1.56l-.11.32c-.06.18-.17.27-.37.27-.18 0-.29-.09-.35-.26-.74-2.1-1.49-4.2-2.23-6.3-.7-1.98-1.4-3.96-2.1-5.94-.18-.5-.36-1.01-.54-1.51-.15-.42-.3-.83-.44-1.25-.09-.27-.2-.53-.41-.71-.21-.18-.5-.22-.76-.23V2h3.44z"/>
</svg>
